<svg id="Calque_1" data-name="Calque 1" xmlns="http://www.w3.org/2000/svg" viewBox="0 0 94.4 22.83">
  <title>4star</title>
  <g>
    <path d="M562.78,1206.68l2.83,8.72h9.17l-7.42,5.38,2.83,8.72-7.41-5.39-7.42,5.39,2.83-8.72-7.41-5.38h9.16Z" transform="translate(-550.78 -1206.68)" style="fill: #ff0"/>
    <path d="M587.18,1206.68l2.83,8.72h9.17l-7.42,5.38,2.83,8.72-7.41-5.39-7.42,5.39,2.83-8.72-7.41-5.38h9.16Z" transform="translate(-550.78 -1206.68)" style="fill: #ff0"/>
    <path d="M611.18,1206.68l2.83,8.72h9.17l-7.42,5.38,2.83,8.72-7.41-5.39-7.42,5.39,2.83-8.72-7.41-5.38h9.16Z" transform="translate(-550.78 -1206.68)" style="fill: #ff0"/>
    <path d="M633.18,1206.68l2.83,8.72h9.17l-7.42,5.38,2.83,8.72-7.41-5.39-7.42,5.39,2.83-8.72-7.41-5.38h9.16Z" transform="translate(-550.78 -1206.68)" style="fill: #ff0"/>
  </g>
</svg>
