<svg id="Calque_1" data-name="Calque 1" xmlns="http://www.w3.org/2000/svg" viewBox="0 0 24 22">
  <title>ajouter_favoris</title>
  <path d="M15.65,19.41C14.49,20.56,13.26,21.75,12,23,5.57,16.62,0,11.85,0,7.19A6,6,0,0,1,6.28,1,6.51,6.51,0,0,1,12,4.25,6.53,6.53,0,0,1,17.73,1,6,6,0,0,1,24,7.19a8,8,0,0,1-1.15,3.86L21.36,9.57A5.49,5.49,0,0,0,22,7.19,4.06,4.06,0,0,0,17.73,3c-3.26,0-5,3.47-5.73,5-.75-1.54-2.48-5-5.72-5A4.05,4.05,0,0,0,2,7.19c0,3.44,4.74,7.85,10,13L14.24,18ZM23,14H20V11H18v3H15v2h3v3h2V16h3Z" transform="translate(0 -1)"/>
</svg>
